<?xml version="1.0" encoding="utf-8"?>
<svg xmlns="http://www.w3.org/2000/svg" viewBox="0 0 100 100" width="100" height="100">
  <defs>
    <linearGradient id="gradient" x1="0%" y1="0%" x2="100%" y2="100%">
      <stop offset="0" stop-color="#4285F4"/>
      <stop offset="1" stop-color="#34A853"/>
    </linearGradient>
  </defs>
  <circle cx="50" cy="50" r="45" fill="url(#gradient)"/>
  <g fill="#FFFFFF" transform="matrix(1, 0, 0, 1, 3.623932, -5.91453)">
    <path d="M 65.929 36.306 L 65.929 71.306 C 65.929 76.806 61.429 81.306 55.929 81.306 C 50.429 81.306 45.929 76.806 45.929 71.306 C 45.929 65.806 50.429 61.306 55.929 61.306 C 57.429 61.306 58.929 61.606 60.229 62.106 L 60.229 46.006 L 40.929 51.306 L 40.929 66.306 C 40.929 71.806 36.429 76.306 30.929 76.306 C 25.429 76.306 20.929 71.806 20.929 66.306 C 20.929 60.806 25.429 56.306 30.929 56.306 C 32.429 56.306 33.929 56.606 35.229 57.106 L 35.229 41.306 C 35.229 39.606 36.429 38.106 38.029 37.706 L 62.314 31.424 C 63.414 31.124 64.258 31.457 64.657 31.779 C 65.427 32.401 65.915 33.054 65.915 34.054 L 65.929 36.306 Z"/>
  </g>
</svg>